<svg xmlns="http://www.w3.org/2000/svg" viewBox="0 0 424.2 450">
  <g transform="translate(92, 20) scale(10)" fill="#003459">
    <path fill-rule="evenodd" clip-rule="evenodd" d="M8.56654 17.8134H12.2371L14.1429 20.2096L13.8152 21.026H9.0731L9.18942 20.2096L8.07153 18.4462L8.56654 17.8134ZM11.193 7.28639L13.1602 7.28343L22 17.822L21.3132 21.026H17.5245L17.7604 20.1233L9.50009 10.2732L11.193 7.28639ZM14.6686 3L18.778 6.22975L18.2519 6.77265L18.9644 7.76492V8.82592L16.9157 10.496L13.4703 6.42551H11.4644L12.272 4.94512L14.6686 3ZM6.04318 13.3443L8.90974 10.853L12.7144 15.4313L11.6342 17.1086H8.12603L5.69899 20.2934L5.14469 21.026H2V17.1183L4.93106 13.3443H6.04318Z"/>
  </g>
  <g transform="translate(0, 280)" fill="#003459">
      <path d="M76.7.07A74.26,74.26,0,0,0,3.43,49.91C3.45,50,8,66,20.39,85.15A54.22,54.22,0,1,1,60.91,127a129.28,129.28,0,0,0,37.51,17.17h0c30.3-8.31,47.94-33.79,49.33-66.86A74.23,74.23,0,0,0,76.7.07Z"></path>
      <path d="M2,53.86s21.09,70.79,93.25,92.56c0,0-36.2,14-70.73-17S2,53.86,2,53.86Z"></path>
      <path d="M159.45,114.37a1.84,1.84,0,0,1-.54-1.36V47.35a1.86,1.86,0,0,1,1.9-1.91h5.9a1.86,1.86,0,0,1,1.9,1.91v4.08a15.64,15.64,0,0,1,5.85-5.35,16,16,0,0,1,7.48-1.82,19,19,0,0,1,10,2.86,21.31,21.31,0,0,1,7.43,7.66,20.37,20.37,0,0,1,2.77,10.34V77.73a20.67,20.67,0,0,1-2.72,10.34,21,21,0,0,1-7.35,7.67,19,19,0,0,1-10.16,2.85,15.75,15.75,0,0,1-6.48-1.4,18.28,18.28,0,0,1-5.67-4V113a1.86,1.86,0,0,1-1.9,1.91h-7.08A1.82,1.82,0,0,1,159.45,114.37ZM188.16,85a10.33,10.33,0,0,0,3.13-7.57V65.4a10.69,10.69,0,0,0-10.71-10.71A10.5,10.5,0,0,0,173,57.82a10.27,10.27,0,0,0-3.17,7.58V77.46A10.25,10.25,0,0,0,173,85a10.47,10.47,0,0,0,7.62,3.13A10.31,10.31,0,0,0,188.16,85Z"></path>
      <path d="M223.89,94.51a21.73,21.73,0,0,1-10.75-18.77v-9.8a21.19,21.19,0,0,1,2.91-10.88,21.42,21.42,0,0,1,7.84-7.89,21.64,21.64,0,0,1,21.68,0,21.5,21.5,0,0,1,7.84,7.89,21.18,21.18,0,0,1,2.9,10.88V72a3.88,3.88,0,0,1-3.89,3.9H224v.45a10.69,10.69,0,0,0,10.7,10.7h14.42a1.81,1.81,0,0,1,1.36.55,1.84,1.84,0,0,1,.54,1.36v6.53a1.85,1.85,0,0,1-1.9,1.9H234.73A21,21,0,0,1,223.89,94.51ZM21.54-28.39v-.81a10.7,10.7,0,1,0-21.4,0v.81Z"></path>
      <path d="M268.65,96.87a1.85,1.85,0,0,1-.54-1.36V47.35a1.86,1.86,0,0,1,1.9-1.91h7.07A1.86,1.86,0,0,1,279,47.35v4.26a18.85,18.85,0,0,1,6-5.41,15.45,15.45,0,0,1,7.66-2,17.89,17.89,0,0,1,9.3,2.45,17.41,17.41,0,0,1,6.49,6.8,20.28,20.28,0,0,1,2.35,9.8v32.2a1.85,1.85,0,0,1-1.9,1.9h-7.07a1.86,1.86,0,0,1-1.91-1.9V64.67c0-3.2-.82-5.67-2.45-7.39a9,9,0,0,0-6.89-2.59,10.8,10.8,0,0,0-8.48,3.59Q279,61.67,279,67.75V95.51a1.85,1.85,0,0,1-.54,1.36,1.88,1.88,0,0,1-1.37.54H270A1.85,1.85,0,0,1,268.65,96.87Z"></path>
      <path d="M353.59,96.91a34.82,34.82,0,0,1-8.85-4.39,1.52,1.52,0,0,1-.63-1,1.69,1.69,0,0,1,.09-1.22l3.17-5.72a1.82,1.82,0,0,1,1.73-1.08,2.74,2.74,0,0,1,1.36.36q6.8,4.26,12.7,4.26a11.47,11.47,0,0,0,7.57-2.31,7.49,7.49,0,0,0,2.76-6,6.32,6.32,0,0,0-1.36-4.13,11.23,11.23,0,0,0-3.62-2.86c-1.52-.78-3.72-1.75-6.62-2.90l-2.63-1.09a33.67,33.67,0,0,1-10.39-6.71q-4.22-4.08-4.22-12a19,19,0,0,1,2.5-9.8,17.23,17.23,0,0,1,6.94-6.62,21.52,21.52,0,0,1,10.24-2.36A30,30,0,0,1,373.9,33a30.59,30.59,0,0,1,8.57,4.4,1.47,1.47,0,0,1,.64,1,1.71,1.71,0,0,1-.09,1.23l-3,5.71a1.81,1.81,0,0,1-1.73,1.09,2.71,2.71,0,0,1-1.36-.36,28.32,28.32,0,0,0-6.76-3.27,19.82,19.82,0,0,0-5.75-1A9,9,0,0,0,358,44a7.42,7.42,0,0,0-2.36,5.67,7.54,7.54,0,0,0,2.58,5.85,30.24,30.24,0,0,0,8.3,4.67q.83.27,6.21,2.49a19.79,19.79,0,0,1,8.58,6.49,16.4,16.4,0,0,1,3.17,10.06,18.83,18.83,0,0,1-2.68,10,18.11,18.11,0,0,1-7.48,6.85,23.92,23.92,0,0,1-11.06,2.45A30.28,30.28,0,0,1,353.59,96.91Z"></path>
      <path d="M394.45,96.87a1.82,1.82,0,0,1-.55-1.36V89.25a1.86,1.86,0,0,1,1.91-1.9h7.71V42.63h-7.71a1.86,1.86,0,0,1-1.91-1.9V34.47a1.88,1.88,0,0,1,1.91-1.91h26.48a1.81,1.81,0,0,1,1.36.55,1.85,1.85,0,0,1,.55,1.36v6.26a1.88,1.88,0,0,1-.55,1.36,1.84,1.84,0,0,1-1.36.54h-3.71V87.38h7.71a1.84,1.84,0,0,1,1.36.54,1.86,1.86,0,0,1,.55,1.36v6.26a1.86,1.86,0,0,1-.55,1.36,1.84,1.84,0,0,1-1.36.54H395.81A1.84,1.84,0,0,1,394.45,96.87Z"></path>
  </g>
</svg>
